<?xml version="1.0" encoding="UTF-8"?>
<svg version="1.1" viewBox="0 0 2000 2000" width="500" height="500" xmlns="http://www.w3.org/2000/svg">
<path transform="translate(0)" d="m0 0h2e3v2e3h-2e3z" fill="#FCFCFC"/>
<path transform="translate(1262,445)" d="m0 0h22l13 3 17 4 10 4 9 4 2 1v2l6 2 12 9 12 12 12 17 7 12 10 25 7 26 5 35 1 14v63l-3 33-5 34-8 41-3 14-11 4-29 9-12 3h-7l1-12 4-42 1-16v-53l-3-31-5-26-5-17-5-13-7-14v-2h-2l-3-6-7-9-5-6-12-9-17-9-15-5-16-3h-22l-19 3-23 7-13 5-24 10-35 16-6 3h-3v2l-20 8-12 5-24 9-26 8-25 5-15 2h-33l-26-5-20-6-17-7-18-10-21-14-13-10-14-12-35-35 1-2 20 11 7 3 18 7 26 7 22 4 8 1h39l21-2 36-7 29-8 21-8 17-6 10-5 26-11 27-13 8-6 6-4 24-11 31-12 24-8 24-6 22-4z" fill="#2669AF"/>
<path transform="translate(763,411)" d="m0 0h49l38 4 35 7 32 8 25 8 29 10 28 11 26 11v1h-7l-16-3-39-4-56-3h-14l-41 3-21 3-28 6-26 8-15 5-10 3-19 10-16 11-14 11-10 9-1 2h-2l-2 4-9 10-13 18-12 22-8 19-8 26-5 22-3 22-2 21v52l3 33 2 15v6l-7-1-19-5-20-8-16-8-2-2-6-28-4-26-3-28-1-17v-32l2-29 5-32 6-23 7-20 8-18 9-17 11-16 8-10 12-13 13-12 14-10 19-11 20-9 24-8 18-4 20-3z" fill="#FEB044"/>
<path transform="translate(493,702)" d="m0 0 1 2-4 11-2 10v10l4 17 7 14 11 13 11 10 17 12 16 9 17 8 42 15 30 9 40 10 47 9 60 9 53 6 52 4 43 3v-45h46v114l-1 1h-23l-22-1-1-45-2-1-83-6-49-5-47-6-48-8-63-12 4 17 12 43 17 52 21 57 15 36 12 28 7 15 8 16 10 21-2 2-5-6-12-19-10-16-6-8-14-22-8-13-14-24-14-25-9-15-21-42-9-20-7-15-11-25-16-43-4-10-26-9-30-13-20-11-14-10-12-10-9-11-7-12-4-14v-12l4-16 9-17 11-14z" fill="#96999E"/>
<path transform="translate(1175,605)" d="m0 0h30l17 4 13 5 15 8 11 9 9 9 11 17 8 17 8 26 4 24 2 19v28l-5 43-2 10-5 2-18 3-15 1-1-1-2-34-4-28-6-24-7-19-9-17-9-12-10-11-10-7-13-6-11-3h-33l-25 4-51 11-31 5-24 2-29 1-26-3-25-5-29-10-22-9-18-10-1-2 30 6 16 2 14 1h37l37-4 23-5 27-7 29-9 31-11 30-11 25-7z" fill="#C8CCD0"/>
<path transform="translate(1502,699)" d="m0 0 5 4 13 18 8 15 5 16v17l-5 14-7 11-12 13-14 11-17 10-25 12-26 10-24 8-30 8-3 2-4 14-3 7-4 13-6 17-3 9-9 25-6 16-6 14-3 10-4 10h-2v5l-4 8-6 16-5 12-9 20-3 7-4 10-4 7-3 8-6 12-3 8-4 7-4 10-8 16-13 29-8 16-2 1 2-10 18-53 8-26 17-59 11-40 15-60 15-69-30 5h-5v2l-3 3-14 46-15 44-19 48-13 29h-2l-1 6-12 30-1-3 7-18 2-6 3-14 8-29 12-45 7-33 6-32 3-19 1-3-6 1-25 2-76 8-58 4-1-20 1-1 90-7 53-6 72-12 43-10 40-11 26-9 21-9 16-8 15-9 14-10 14-14 8-11 6-12 3-12v-15l-3-15-5-12z" fill="#96999E"/>
<path transform="translate(276,1299)" d="m0 0h18l24 4 10 4 12 6v2l5 2 4 2 15 15 8 11v2l-11 7-5 4h-2v2l-7 4-4 3-5-1-7-8-7-7-14-8-9-3-6-1h-18l-11 3-11 6-11 10-7 10-5 11-2 9v21l3 12 8 16 7 8 4 2 1 2 3 1v2l7 2 9 4 4 1h22l12-4 11-6 10-9 7-10 5-11 3-9h40l1 2-4 17-7 16-6 11h-2l-2 4-7 8-9 9-7 5h-2v2l-9 4h-2v2l-21 7-19 3-16-1-19-5-12-5-14-8-13-11v-2h-2l-10-13-5-9v-2h-2l-3-7-5-19-1-5v-25l4-20 7-16 8-13 11-13 14-11 10-6 16-6z" fill="#2669AF"/>
<path transform="translate(993,1299)" d="m0 0h20l16 3 17 6 16 9 12 11 5 4 9 12-1 4-18 13-10 7-4-2-9-10-11-9-14-6-9-2h-17l-12 3-12 7-10 9-8 12-5 15-1 6v19l4 14 6 11 7 9 11 8 10 5 13 3h13l11-3 10-4 10-7 9-9 8-16 4-10h40l-1 10-6 18-8 15-8 10-9 10-13 10-19 9-15 4-12 2h-20l-17-4-16-6-10-6-9-7-8-7-11-14-9-17-5-16-3-19 1-16 3-15 5-14 8-15 10-13 12-11 18-11 21-7z" fill="#FEB044"/>
<path transform="translate(1181,1362)" d="m0 0h16l16 4 16 8 10 9 7 8 8 15 4 15 1 11-2 14-4 11-6 11-8 10-10 9-14 7-15 4-12 1-15-2-13-5-12-7-11-11-7-11-5-12-3-13v-18l4-15 8-15 11-12 10-7 13-6z" fill="#FEB044"/>
<path transform="translate(1674,1362)" d="m0 0h17l16 4 16 8 12 11 9 13 5 12 3 12v18l-4 15-7 13-8 10-9 8-10 6-15 5-11 2-16-1-14-4-12-6-12-11-6-7-7-12-4-14-1-6v-16l3-14 4-9 6-10 11-12 12-8 13-5z" fill="#FEB044"/>
<path transform="translate(598,1362)" d="m0 0h16l14 3 9 4v2l5 2 8 7 9 13 5 11 3 11 1 10v71h-26l-10-1-1-68-2-10-2-3v-3h-2l-3-5-9-5-5-1h-11l-10 4-8 8-5 9-1 75h-27l-9-1-1-1v-129l36-1 1 8 16-8z" fill="#2769AF"/>
<path transform="translate(1342,1362)" d="m0 0h15l12 3 16 8 11 11 7 11 5 13 2 10 1 32v45l-1 1h-34l-1-1-2-73-3-9-5-6v-2l-5-2-8-3h-10l-10 3-7 5-6 9-2 8-1 16-1 54-11 1h-24l-1-24v-107h36l1 6 5-1 12-6z" fill="#FEB044"/>
<path transform="translate(809,1362)" d="m0 0h15l21 5 8 4v2l5 1 1 2 3 1 5 6 4 3-2 4-11 8-1 2-5 3-9 7-4-2-5-4-6-3-5-1h-13l-5 1v2l-7 4-6 7-4 9v15l6 12 5 4 1 2 3 1v2l8 2h11l10-3 8-6 6-9 3-7h38l-2 10-2 7-6 14-5 5-7 8-2 3-3 1-1 2h-3v2l-5 1v2l-17 6-8 2h-15l-16-4-16-8-12-11-8-11v-2h-2l-7-21-1-15 3-16 5-13 7-10 10-11 11-7 11-5z" fill="#2669AF"/>
<path transform="translate(590,854)" d="m0 0h7l29 9 17 5 3 6 10 38 12 39 14 41 19 51 16 38 13 30 16 32 5 12h-3l-4-5-12-19-10-16-6-8-14-22-8-13-14-24-14-25-9-15-21-42-9-20-7-15-11-25-16-43z" fill="#FEB044"/>
<path transform="translate(1478,1323)" d="m0 0h4v41l30 1 1 1v18l-1 15h-29l-1 1v39l1 9 6 7 10 5 12 2 1 11-1 25h-12l-14-3-16-8-9-7-8-11-4-8-3-14-1-47-1-1-18-1v-33h19v-17l10-8 18-13z" fill="#FEB044"/>
<path transform="translate(1366,867)" d="m0 0h3l-1 7-3 9-3 11-3 8-6 17-3 9-9 25-6 16-6 14-3 10-4 10h-2v5l-4 8-6 16-5 12-9 20-3 7-4 10-4 7-3 8-6 12-3 8-4 7-4 10-8 16-13 29-8 16-2 1 2-10 18-53 8-26 17-59 11-40 15-60 15-69 3-2z" fill="#2769B0"/>
<path transform="translate(414,1302)" d="m0 0h32l1 1v192l-3 1h-25l-9-1v-192z" fill="#2669AF"/>
<path transform="translate(1773,1303)" d="m0 0h36v193h-35l-1-1z" fill="#FEB044"/>
<path transform="translate(1590,1362)" d="m0 0h13v38h-13l-9 2-8 7-5 10-1 4-2 72-1 1h-34l-1-1v-130h37l-1 6 9-3 7-4z" fill="#FEB044"/>
<path transform="translate(1015,838)" d="m0 0h47v114l-5 1h-41l-1-1z" fill="#96999E"/>
<path transform="translate(692,1365)" d="m0 0h37v131h-28l-8-1-1-1z" fill="#2669AF"/>
<path transform="translate(474,1365)" d="m0 0h36v131h-27l-10-1v-129z" fill="#2669AF"/>
<path transform="translate(1185,1399)" d="m0 0h11l10 4 9 8 5 9 1 6v10l-4 11-7 9-9 5-5 1h-13l-9-4-7-5-6-10-2-5v-13l4-11 9-10 8-4z" fill="#FDFDFD"/>
<path transform="translate(1678,1399)" d="m0 0h11l11 4 8 7 5 8 2 7v11l-4 11-9 10-7 4-5 1h-13l-9-4-8-7-5-8-2-6v-11l3-10 6-8 7-6z" fill="#FDFDFD"/>
<path transform="translate(1280,884)" d="m0 0h5l-3 4-14 46-15 44-19 48-13 29h-2l-1 6-12 30-1-3 7-18 2-6 3-14 8-29 12-45 7-33 6-32 3-19 1-3-6 1h-8v-1z" fill="#C6CACE"/>
<path transform="translate(484,1301)" d="m0 0h15l8 6 5 7 1 9-3 9-5 4-1 2-6 3-9 1-8-3-7-6-1-4h-2l-1-5v-8l4-8 8-6z" fill="#286AAF"/>
<path transform="translate(704,1301)" d="m0 0h14l8 6 5 7 1 4v8l-3 5-4 5-8 5-8 1-9-3-8-7-3-8v-8l5-8 6-5z" fill="#2769AF"/>
<path transform="translate(1201,1096)" d="m0 0h2l-2 9-11 28-1-4z" fill="#C2C6CA"/>
</svg>
